<?xml version="1.0" encoding="UTF-8"?><svg id="Layer_2" xmlns="http://www.w3.org/2000/svg" viewBox="0 0 178.43 222.74"><defs><style>.cls-1,.cls-2,.cls-3,.cls-4,.cls-5,.cls-6,.cls-7,.cls-8,.cls-9,.cls-10{stroke-width:0px;}.cls-2{fill:#fe911a;}.cls-3{fill:#fff;}.cls-4{fill:#060605;}.cls-5{fill:#17120c;}.cls-6{fill:#0f0e0e;}.cls-7{fill:#100f0f;}.cls-8{fill:#141212;}.cls-9{fill:#708838;}.cls-10{fill:#151414;}</style></defs><g id="Layer_1-2"><path class="cls-4" d="M.76,72.08c-.01-.75-.02-1.49-.04-2.24-.02-.82-.05-1.64-.07-2.45-.99-1.31-.58-3.46-.51-3.47.4,0,1.03.08,1.43.08,1.32,2.5,3.6,3.83,6.18,4.3,3.58.65,7.23,1.05,10.86,1.18,7.07.24,14.15.19,21.22.28,3.78.05,7.55.12,11.33.2,4.32.09,8.65.16,12.97.31,4.2.15,8.42-.24,12.59.56.77.15,1.57.23,2.36.25,3.4.11,6.82.1,10.22.3,4.01.24,8.02.64,12.02.97.91.07,1.86.31,2.71.13,1.48-.32,2.87-.26,4.33.1.93.23,1.94.26,2.91.24,4.77-.11,9.46.73,14.18,1.19,1.09.11,2.28.43,3.25.12,1.61-.52,3.09-.18,4.64.01,1.78.22,3.48.15,5.12-.79,1.82-1.05,2.64-2.59,1.96-4.5-.23-.65-.85-1.15-1.25-1.75-1.52-2.29-3.69-2.99-6.31-2.62.52-.92.76-2.06,1.96-2.44,1.4.51,2.79,1,4.09,1.81,1.15.72,2.57,1,3.77,1.66,1.72.95,2.81,2.29,2.65,4.51-.17,2.48-.04,4.99-.04,7.61.43-.08.83-.12,1.22-.23,1.69-.47,3.34-1.12,5.06-1.37,1.48-.22,3.04-.1,4.54.07,5.99.66,10.73,3.54,14.55,8.16,2.76,3.33,4.58,7.08,5.92,11.17.8,2.45,1.29,4.95,1.59,7.46.31,2.65.3,5.36.17,8.03-.11,2.36-.37,4.75-.96,7.03-.77,2.98-1.66,5.93-2.98,8.77-1.09,2.35-2.22,4.66-3.68,6.77-1.96,2.82-4.3,5.31-6.99,7.47-1.84,1.48-3.88,2.61-5.98,3.55-3.69,1.65-7.66,2.09-11.64,1.53-1.98-.28-3.87-1.12-5.92-1.74-.33.59-.78,1.23-1.07,1.92-1.28,3.06-3.37,5.54-5.57,7.94-2.31,2.52-4.63,5.04-7.01,7.49-3.6,3.7-7.63,6.75-12.58,8.48-2.03.71-3.97,1.71-6,2.4-1.82.62-3.73,1.01-5.6,1.5-8.32,2.25-16.39,2.18-16.52,2.19-.42.01-.85.02-1.28.03-.09.02-.19.04-.28.06-1.81.09-3.63.24-5.44.25-3.48.03-6.96,0-10.44-.02-.47,0-13.47-1.42-14.44-1.42-2.11-.41-4.23-.81-6.34-1.24-.77-.16-6.77-1.83-8.7-2.7-2.61-1.18-13.68-8.18-16.37-10.62-3.55-2.53-8.53-8.23-8.53-8.23-1.84-2-2.06-2.39-3.09-3.92-.13-.05-.74-1.12-1.26-1.83-4.07-8.06-5.06-12.05-5.65-14-1.39-4.18-2.17-9.6-2.19-9.81-.14-2.14-1.03-9.41-1.07-10.26-.09-1.88-.26-3.76-.33-5.64-.07-1.83-.02-3.66-.09-5.48-.19-4.82-.2-8.86-.02-13.31.1-2.51.11-7.18.15-8.8.03-1.23.09-4.37.3-7.22ZM94.44,122.95c1.67.27,3.33.64,5,.9,1.01.16,2.04.18,3.06.26,2.56.02,5.12.1,7.68.04,2.86-.07,5.72-.21,8.57-.41,1.94-.14,3.37-1.22,4.4-2.83,1.12-1.74,1.51-3.58.33-5.43-.81-1.27-1.9-2.27-3.36-2.88-2.41-1-4.95-1.5-7.46-2.08-.14-.18-5.37-.76-6.89-.92-2.84-.28-9.24-.12-12.89,1.11-.04.02-.04.11-.05.17-.98.39-1.95.77-2.93,1.16-.47.26-1.02.45-1.4.81-.6.55-1.46,1.17-1.55,1.85-.24,1.71.25,3.82,1.1,5.01.42.62,1.34,1.75,2.6,2.23,0,0,3.5.96,3.8,1.01ZM29.07,120.46c.11.05.23.11.34.16,1.48,1.31,1.95,1.48,4.08-.94-.83-.43-1.62-.84-2.4-1.26-.31-.17-.8-.3-.87-.55-.32-1.09-1.19-1.4-2.22-1.63.63-.58,1.55-1.02,1.58-1.51.08-1.32.92-2.06,1.61-2.97,1.21-1.62,3.33-1.58,4.33.17.88,1.55,1.61,3.18,2.4,4.79-1.13,1.37-2.16,2.62-3.23,3.92.23,1.25.98,1.89,2.41,1.71.72-.09,1.46-.03,2.19-.04,2.48.23,4.95.55,7.44.68,2.49.13,4.99.3,7.45-.42,1.04-.31,2.14-.44,3.22-.63,2.28-.39,4.84-2.76,4.11-5.83-.73-3.07-2.84-4.73-5.46-5.93-3.32-1.52-6.89-2.16-10.5-2.59-.13-.78-.75-.69-1.28-.67-2.97.11-5.94.23-8.91.38-.34.02-.67.25-1.01.35-.45.14-.91.28-1.38.36-1.01.16-2.04.24-3.05.44-.2.04-.34.42-.51.64-1.26.41-2.55.74-3.77,1.24-1.93.79-1.12,8.21,1.18,9.27.27.12.52.28.78.42.49.15.98.29,1.48.44ZM142.4,135.46c2.85.41,5.37.42,8.01-.1,2.91-.57,5.29-1.99,7.56-3.63,4.03-2.92,6.72-6.99,8.43-11.58,1.2-3.23,1.84-6.67,1.88-10.17.05-3.5-.69-6.79-1.98-10.03-.92-2.3-2.08-4.43-3.7-6.29-1.98-2.28-4.39-3.92-7.25-5.03-3.46-1.34-6.83-1.44-10.43-.31,0,.72,0,1.38,0,2.05.01,4.69.07,9.38.02,14.07-.04,3.05-.3,6.09-.36,9.14-.06,2.85.21,5.67-.13,8.57-.34,2.9-.75,5.78-1.21,8.66-.23,1.48-.53,2.95-.84,4.65ZM138.39,83.73s-.08,0-.13,0c0-.79.06-1.59-.02-2.38-.09-.98-1.51-1.91-2.24-1.42-.66.45-1.45.95-1.47,1.94-.02.91-.07,1.83,0,2.74.11,1.76.24,3.53.45,5.28.29,2.47-.58,4.8-.74,7.22-.04.65-.32,1.27-.43,1.92-.26,1.56-.6,3.11-.69,4.68-.09,1.38.77,2,2.13,1.76.84-.15,1.45-.62,1.63-1.49.22-1.01.42-2.03.59-3.05.43-2.57,1.07-5.13,1.19-7.71.14-3.15-.16-6.33-.27-9.5ZM75.28,113.83c-.14.21-.3.34-.31.49-.39,3.26-.81,6.52-1.14,9.78-.19,1.87-.28,3.76-.33,5.64-.03,1.24.67,2.01,1.62,2.02.76,0,1.27-.85,1.23-2.13-.02-.73-.11-1.46-.12-2.18-.08-3.96-.15-7.91-.23-11.87-.01-.65,0-1.32-.72-1.75ZM132.93,118.47c1.12.02,2.25-.9,2.3-1.88.05-1.06-.83-1.97-1.92-1.98-1.11,0-2.24,1.12-2.23,2.21,0,.88.84,1.62,1.85,1.64Z"/><path class="cls-2" d="M132.87,64.47c-.39.44-.79.87-1.18,1.31l-2.9,3.4c-.65.32-1.26.29-1.91-.08-.63-.36-1.32-.62-2-.89-2.99-1.19-6.22-1.01-9.32-1.38-5.3-.64-10.67-.71-16.01-1.02-.12,0-.24-.02-.36-.03-.63-.17-1.27-.48-1.9-.5-6.27-.18-12.54-.39-18.81-.44-3.46-.03-6.93.36-10.39.35-6.03-.02-12.05-.19-18.08-.33-1.15-.03-2.3-.25-3.45-.26-1.69-.01-3.39.08-5.08.13-.22,0-.44-.01-.66-.02-.88-.21-1.75-.59-2.64-.61-5.86-.13-11.72-.19-17.57-.26-.91-.01-1.82.07-2.74.09-1.15.02-2.29.05-3.44,0-.76-.03-2-.08-2.76-.18-.26-.21-.16-.54-.42-.75-.05-.13.01-.25-.04-.38-.16-.16-.32-.33-.48-.49h0c-.25-.36-.5-.73-.76-1.1-.52-.72-1.03-1.43-1.55-2.15-.13-.95-.55-1.7-1.46-2.12-.17-.63-.25-1.3-.52-1.89-2.23-4.75-2.55-9.8-1.91-14.86.38-3.03,1.59-5.9,3.17-8.61,2.38-4.1,5.5-7.46,9.14-10.42,3.24-2.63,6.76-4.84,10.55-6.54,3.07-1.38,6.09-2.93,9.42-3.69,1.62-.37,3.17-1.09,4.75-1.62.2-.07.47.06.7.1-1.29,1.9-2.36,3.83-2.73,6.2-.44,2.76.21,4.74,2.55,6.38,2.19,1.53,4.53,1.87,7.05,1.68,1.58-.12,3.15-.5,4.72-.45,1.68.05,3.36.41,5.02.74,2.65.52,4.23,2.14,4.72,4.82.3,1.61.64,3.22.93,4.83.61,3.46,2.35,6,5.57,7.62,1.91.97,3.87.95,5.63.31,2.14-.77,4.02-2.21,5.55-3.99,1.26-1.47,2.47-2.99,3.82-4.37,1.13-1.16,2.39-2.24,4.13-2.36,3.64-.24,7.28-.53,10.93-.65,2.46-.08,4.57-.61,6.4-2.48,1.45-1.48,2.15-3,2.04-5.02-.16-2.96-1.31-5.3-4.04-6.65-1.13-.56-2.35-1.2-3.55-1.26-1.96-.09-3.5-1.06-5.02-1.95-1.53-.89-3.28-1.64-4.22-3.32,2.57-.25,4.87.82,7.21,1.56,3.04.96,6.02,2.15,8.96,3.39,4.15,1.75,8.22,3.67,11.82,6.46,2.27,1.76,4.71,3.34,6.81,5.29,1.93,1.79,3.48,3.99,5.26,5.96,1.61,1.78,2.48,3.98,3.6,6.03,1.21,2.21,1.83,4.66,2.07,7.13.4,4.12.52,8.26-1.27,12.18-.6,1.31-1.12,2.66-1.63,4-.07.18-1.23,2.22-1.74,3.15ZM128.19,33.7c-.32-.71-.47-1.32-.82-1.79-.54-.72-1.19-1.37-1.84-2.01-3.18-3.15-6.89-5.57-10.75-7.77-.53-.3-1.27-.26-1.91-.32-.74-.06-1.3.31-1.56.99-.28.72-.11,1.32.43,1.98,1.2,1.48,3,1.98,4.47,3.02,2.36,1.66,4.67,3.36,6.68,5.44.7.73,1.51,1.36,2.28,2.02.73.62,1.43.2,2-.22.44-.32.69-.89,1.04-1.36ZM130.61,39.29c0-.68.05-1.17,0-1.64-.13-1.12-.97-1.62-2.28-1.43-1,.15-1.58.94-1.3,1.97.13.48.58.87.86,1.31.22.34.66.75.59,1.03-.27,1.07.35,1.85.67,2.73.49,1.34,1.18,1.86,2.18,1.65.9-.2,1.94-1.54,1.67-2.49-.37-1.27-.47-2.85-2.39-3.13Z"/><path class="cls-9" d="M91.77,9.33c.95,1.68,2.7,2.43,4.22,3.32,1.52.89,3.07,1.86,5.02,1.95,1.2.05,2.42.7,3.55,1.26,2.72,1.34,3.88,3.69,4.04,6.65.11,2.02-.59,3.54-2.04,5.02-1.83,1.87-3.94,2.4-6.4,2.48-3.65.12-7.29.41-10.93.65-1.74.12-3,1.2-4.13,2.36-1.35,1.39-2.55,2.91-3.82,4.37-1.53,1.78-3.41,3.22-5.55,3.99-1.76.64-3.72.66-5.63-.31-3.21-1.63-4.96-4.17-5.57-7.62-.29-1.61-.63-3.22-.93-4.83-.49-2.67-2.07-4.3-4.72-4.82-1.66-.32-3.34-.68-5.02-.74-1.57-.05-3.14.33-4.72.45-2.52.2-4.86-.14-7.05-1.68-2.34-1.64-2.99-3.62-2.55-6.38.38-2.37,1.44-4.3,2.73-6.2,1.89-2.29,3.97-4.39,6.75-5.57,1.6-.67,3.29-1.15,4.96-1.64,1.25-.37,2.55-.6,3.82-.9.12-.03.23-.1.35-.12,3.7-.39,7.31-1.26,11.14-.95,4,.32,7.7,1.69,11.57,2.44,2.66,1.71,5.9,2.41,8.16,4.84.59.63,1.53.93,2.31,1.39.16.21.31.42.47.63l-.02-.03Z"/><path class="cls-7" d="M86.23,176.2c.3-.23,15.47-2.2,16.12-2.16-.62.31-1.25.62-2.13,1.07-.48.61-.27,1.59-.19,2.56.13,1.52.31,3.03.41,4.55.2,3.04.36,6.09.54,9.13.27,4.48.58,8.95.79,13.43.19,3.87.3,7.75-.37,11.6-.03.16.07.34.1.51.41,2.12-.2,3.16-2.29,3.64-3.02.7-6.07,1.29-9.1,1.95-2.27.49-4.47.25-6.64-.48-2.21-.74-3.21-3.64-1.98-5.61,1.06-1.69,2.63-2.73,4.39-3.47,1.39-.58,2.86-.94,4.49-1.47-.33-11.68-.67-23.52-1-35.45-1.01.06-2.08.13-3.16.19Z"/><path class="cls-6" d="M53.96,175.14c.97,0,13.97,1.42,14.44,1.42,3.48.02,6.96.05,10.44.02,1.81-.02,3.63-.17,5.44-.25-.14.1-14.45.37-15.73.39-1.41.02-1.57.18-1.6,1.58-.05,2.5-.08,5-.13,7.5-.07,3.29-.2,6.57-.22,9.86-.02,2.37-.01,4.72.47,7.1.49,2.43.37,4.98.64,7.46.17,1.62.39,3.27.89,4.81.6,1.84-.81,3.29-2.1,3.64-.58.16-1.21.13-1.82.2-1.09.12-2.17.37-3.25.35-3.63-.06-7.28.42-10.87-.57-1.17-.32-2.4-.38-3.59-.64-1.88-.41-3.56-1.16-4.5-2.75-.44-2.98,1.33-4.24,3.54-5.29,1.82-.86,3.78-.87,5.7-1.18,1.74-.28,3.5-.43,5.49-.67-.66-10.77-.54-21.44.1-32.2-1.24-.29-2.29-.53-3.34-.78Z"/><path class="cls-1" d="M6.97,56.76c.91.42,1.33,1.17,1.46,2.12-.02.42-.13.85-.05,1.24.11.56.03.9-.59.97-.04-.66-.85-2.79-1.48-2.96-.48-.21-.96-.42-1.44-.64.7-.24,1.4-.48,2.1-.73Z"/><path class="cls-1" d="M4.87,57.49c.48.21.96.42,1.44.64-1.35-.14-2.81,1.26-3.45,1.95-.53,0-1.34.13-1.87.12,1.14-1.31,2.34-1.96,3.88-2.7Z"/><path class="cls-1" d="M1.28,60.04c.53,0,1.06.02,1.58.03-1.23,1.04-1.32,2.46-1.29,3.92-.4,0-1.03-.08-1.43-.08-.02-1.54-.04-2.3.24-2.74.14-.37.47-.97.9-1.13Z"/><path class="cls-1" d="M19.55,157.87c.23.24.45.48.68.72-.23-.24-.45-.48-.68-.72Z"/><path class="cls-6" d="M84.56,176.26c.43-.01.85-.02,1.28-.03-.43.01-.85.02-1.28.03Z"/><path class="cls-2" d="M91.79,9.36c-.16-.21-.31-.42-.47-.63.16.21.31.42.47.63Z"/><path class="cls-1" d="M.47,66.92c.06.16.12.31.19.47-.06-.16-.12-.31-.19-.47Z"/><path class="cls-3" d="M1.4,63.59c-.21-1.73.05-2.88,1.29-3.92,1.06-.81,1.96-1.89,3.45-1.95.6.02,1.23.16,1.37,1.07.03.57.07,1.23.11,1.89-.1.97-.8,1.23-1.64,1.37-.58.1-.36.47-.16.78.32.18,1.03.69,1.13.72.53.25,1.04.66,1.58.72,3.38.4,6.76.87,10.16,1.02,4.38.19,8.78.15,13.17.12,3.05-.02,6.09-.24,9.14-.32,2.44-.06,4.87-.04,7.31-.06.5,0,1,.01,1.5.02.93.02,1.86.04,2.8.05.57.11,1.14.28,1.72.34,2.03.21,4.06.4,6.1.55,1.55.12,3.12.18,4.6-.46l.12.09.15-.04c.31.15.61.42.93.43,2.95.06,5.89.07,8.84.1,2.01.06,4.04-.01,6.04.2,2.54.27,5.06.77,7.64.38.47-.07.97.03,1.46.07,2.07.16,4.13.32,6.2.47.79.06,1.64-.09,2.37.14,1.68.53,3.37.44,5.08.47.91.01,1.82.12,2.74.14,2.49.06,4.99.09,7.48.13.73.01,1.56-.2,2.18.07,1.64.73,3.34.48,5.02.64.3.03.65-.05.91.07,1.99.92,4.06.55,6.11.47,2.44.07,4.89.62,7.47.11-.27-.36-3.79-.11-4.04-3.7.4-.44.79-.87,1.18-1.31,2.62-.37,4.62-.07,6.14,2.21.4.6,1.02,1.1,1.25,1.75.67,1.91-.15,3.46-1.96,4.5-1.64.94-3.34,1.01-5.12.79-1.54-.19-3.03-.53-4.64-.01-.97.31-2.17-.01-3.25-.12-4.72-.46-9.41-1.3-14.18-1.19-.97.02-1.98,0-2.91-.24-1.46-.36-2.85-.42-4.33-.1-.86.18-1.81-.05-2.71-.13-4.01-.33-8.01-.73-12.02-.97-3.4-.2-6.81-.19-10.22-.3-.79-.03-1.58-.1-2.36-.25-4.17-.8-8.4-.41-12.59-.56-4.32-.15-8.64-.22-12.97-.31-3.78-.08-7.55-.15-11.33-.2-7.07-.09-14.15-.05-21.22-.28-3.63-.12-7.29-.53-10.86-1.18-2.58-.47-4.86-1.8-6.18-4.3Z"/><path class="cls-3" d="M112.66,110.52c2.52.58,5.05,1.08,7.46,2.08,1.46.61,2.55,1.6,3.36,2.88,1.18,1.84.78,3.69-.33,5.43-1.03,1.61-2.46,2.69-4.4,2.83-2.85.2-5.71.34-8.57.41-2.56.06-5.12-.02-7.68-.04-.78-.49-1.99-.05-2.53-1.18,1.16-1.06,1.45-2.48,1.91-3.87,1.02-3.1.28-5.58-2.42-7.5-.82-.59-1.7-1.1-2.54-1.65.35-.03.7-.06,1.05-.08,1.52,0,3.04.06,4.56.02,2.56-.08,5.1-.09,7.62.49.81.19,1.68.13,2.52.18Z"/><path class="cls-4" d="M97.13,109.36c1.6.33.93-.05,1.75.54,2.7,1.93,4.28,6.74,3.26,9.84-.45,1.38-1.7,4.26-2.71,4.11-1.67-.26-3.33-.62-5-.9-.3-.05-.68.06-.94.22-.76.46-1.12.04-1.42-.57-1.44-2.09-1.91-5.77-1.61-7.38.53-1.78.97-3.45,2.41-4.51,1.16-.7,4.17-1.44,4.25-1.35Z"/><path class="cls-3" d="M138.39,83.73c.11,3.17.41,6.34.27,9.5-.12,2.58-.76,5.14-1.19,7.71-.17,1.02-.37,2.04-.59,3.05-.19.87-.79,1.34-1.63,1.49-1.35.24-2.21-.38-2.13-1.76.1-1.57.43-3.12.69-4.68.11-.65.39-1.27.43-1.92.17-2.41,1.04-4.75.74-7.22-.21-1.75-.34-3.52-.45-5.28-.06-.91-.01-1.83,0-2.74.02-.99.81-1.49,1.47-1.94.73-.5,2.14.43,2.24,1.42.08.79.02,1.58.02,2.38.04,0,.08,0,.13,0Z"/><path class="cls-4" d="M45.53,107.59c-1.83-.03-3.66-.14-5.48-.05-1.73.09-3.44.39-5.61.66,2.71,1.52,4.16,3.51,4.83,6.12.69,2.71.46,5.15-1.85,7.28.79.3,1.32.51,1.85.71-.73,0-1.47-.05-2.19.04-1.43.18-2.18-.46-2.41-1.71,1.07-1.3,2.1-2.55,3.23-3.92-.8-1.61-1.52-3.24-2.4-4.79-1-1.75-3.11-1.79-4.33-.17-.68.91-1.53,1.65-1.61,2.97-.03.49-.94.93-1.58,1.51,1.03.23,1.9.55,2.22,1.63.07.25.56.38.87.55.78.42,1.57.83,2.4,1.26-2.13,2.42-2.32,2.43-4.42.78-2.11-2.15-2.74-6.36-1.4-8.91.82-2.02,2.03-3.06,2.23-3.1,1.01-.19,2.03-.28,3.05-.44.47-.07.92-.22,1.38-.36.34-.1.67-.33,1.01-.35,2.97-.15,5.94-.27,8.91-.38.53-.02,1.15-.11,1.28.67Z"/><path class="cls-3" d="M29.39,109.1c-.79,1.03-1.06,1.52-1.7,2.65-1.34,2.54-.73,6.56,1.37,8.72.29.3.18-.26.34.16-.11-.05-.23-.11-.34-.16-.49-.15-.98-.29-1.48-.44-.26-.14-.51-.3-.78-.42-2.3-1.06-3.46-2.55-3.25-6.43.23-1.42.56-2.05,2.07-2.84,1.22-.5,2.51-.83,3.77-1.24Z"/><path class="cls-3" d="M75.28,113.83c.73.43.71,1.1.72,1.75.08,3.96.15,7.91.23,11.87.02.73.1,1.46.12,2.18.03,1.28-.48,2.14-1.23,2.13-.95-.01-1.65-.78-1.62-2.02.04-1.88.14-3.77.33-5.64.33-3.27.75-6.52,1.14-9.78.02-.15.18-.28.31-.49Z"/><path class="cls-3" d="M132.93,118.47c-1.01-.02-1.84-.76-1.85-1.64-.01-1.09,1.13-2.21,2.23-2.21,1.09,0,1.97.91,1.92,1.98-.05.98-1.18,1.9-2.3,1.88Z"/><path class="cls-10" d="M27.59,120.03c.49.15.98.29,1.48.44-.49-.15-.98-.29-1.48-.44Z"/><path class="cls-8" d="M90.64,121.95c.2.11.4.22.61.33-.2-.11-.4-.22-.61-.33Z"/><path class="cls-1" d="M133.16,70.17c-2.06.08-10.38-.82-11.72-1.05-.26-.12-4.37-.64-4.67-.67-1.68-.16-8.77-.58-11.26-.64-.91-.02-13.1-.49-15.16-.65-.49-.04-.99-.14-1.46-.07-3.24-.31-4.63-.31-7.64-.38-2.7-.23-10.55-.05-15.4-.34.92-.47,1.36-.84,1.75-.84,6.52-.03,13.04-.04,19.56-.05.3,0,.62-.03.91.02,3.69.62,7.4.27,11.11.27.12.01.24.03.36.03,5.34.31,10.71.39,16.01,1.02,3.1.37,6.28.1,9.27,1.29.71.25,1.28.56,2.17.72,1.27.24,2.02.31,1.79.34-.12.3,4.49.8,4.36.99Z"/><path class="cls-3" d="M128.19,33.7c-.35.47-.6,1.03-1.04,1.36-.57.42-1.27.84-2,.22-.77-.66-1.58-1.29-2.28-2.02-2.01-2.09-4.31-3.78-6.68-5.44-1.47-1.03-3.27-1.54-4.47-3.02-.54-.66-.7-1.26-.43-1.98.26-.68.82-1.05,1.56-.99.65.05,1.39.01,1.91.32,3.86,2.2,7.58,4.62,10.75,7.77.64.64,1.3,1.28,1.84,2.01.35.47.51,1.08.82,1.79Z"/><path class="cls-2" d="M99.18,65.77c-3.7,0-7.42.35-11.11-.27-.3-.05-.61-.02-.91-.02-6.52.01-13.04.02-19.56.05-.4,0-.79.19-1.19.29-.32.06-.64.11-.97.17l-.15.04s-.12-.09-.12-.09c-.83-.15-1.65-.41-2.48-.42-3.31-.04-6.63,0-9.94,0-.93-.02-1.86-.04-2.8-.05-.51-.1-1.03-.2-1.54-.3-2.31-.03-4.61-.05-6.92-.08,0-.12-.02-.23-.03-.35,1.44-.36,3.39-.14,5.08-.13,1.15,0,2.3.23,3.45.26,6.02.14,12.05.31,18.08.33,3.46.01,6.93-.37,10.39-.35,6.27.05,12.54.26,18.81.44.64.02,1.27.33,1.9.5Z"/><path class="cls-3" d="M130.61,39.29c1.92.29,2.02,1.86,2.39,3.13.27.94-.76,2.29-1.67,2.49-.99.22-1.69-.3-2.18-1.65-.32-.88-.94-1.66-.67-2.73.07-.28-.37-.69-.59-1.03-.29-.44-.73-.83-.86-1.31-.28-1.03.3-1.82,1.3-1.97,1.31-.2,2.14.31,2.28,1.43.06.48,0,.96,0,1.64Z"/><path class="cls-2" d="M11.99,63.74c.76.1,1.68.16,2.44.19,1.14.04,2.29.01,3.44,0,.91-.02,1.83-.1,2.74-.09,5.86.07,11.72.13,17.57.26.88.02,3.24.13,3.97,1.11-1.85.01-14.87.44-15.78.41-1.27-.03-2.95-.21-4.21-.29-1.27-.01-2.65-.29-4.26-.46-.94.03-1.4-.07-2.83-.16-.59,0-1.8.32-4.49-.21-.68-.14,1.28-.21,1.1-.85l.3.08Z"/><path class="cls-5" d="M6.11,63.32c-.2-.32-.54-.76.04-.86.84-.14,1.28-.49,1.64-1.37.63-.06.7-.4.59-.97-.08-.39.03-.83.05-1.24.52.72,1.03,1.43,1.55,2.15.25.37.5.74.76,1.11,0,0,0-.01,0-.01.16.16.32.33.48.49.05.13.1.26.15.39.15.24.3.48.45.72-.1.66-.6.71-1.1.66-1.2-.12-2.4-.28-3.6-.42-.09-.03-.56-.31-1-.65Z"/><path class="cls-1" d="M131.63,65.83c.33-.13.42.67.55,1.34.34.69,1.79,1.46,2.18,1.59.33.13.66.27.99.4-2.18.67-4.37.42-6.55.03,0,0,0,0,0,0,.97-1.13,1.87-2.22,2.84-3.35Z"/><path class="cls-2" d="M10.74,62.14c-.25-.37-.5-.74-.76-1.11.25.37.5.74.76,1.11Z"/><path class="cls-2" d="M11.21,62.62c-.16-.16-.32-.33-.48-.49.16.16.32.33.48.49Z"/><path class="cls-1" d="M15.07,64.72c1.96.13,3.92.25,5.89.38,1.56.11,2.25.17,3.8.16,2.1,0,4.34-.04,6.44-.13.95.1,4.01-.01,4.96-.03,2.25-.06,3.1.11,5.35-.01,2.31.03,23.8.43,26.1.45.86.22-.11.44-1.23.88-2.44.02-28.16-.31-34.23-.07-6.45.26-8.58,0-12.71-.3-3.54-.05-5.76-.44-9.69-1.15-.8-.23-2.11-.68-2.64-.93,1.2.14,2.4.3,3.6.42"/><path class="cls-1" d="M128.79,69.18c2.19.4,4.37.64,6.55-.03.39.07.69.18.55.72-3.42.66-5.03-.04-7.47-.11.12-.19.25-.39.37-.58Z"/><path class="cls-1" d="M48.47,65.44c0-.1-.03-.19-.05-.28.51.1,1.03.2,1.54.3-.5,0-1-.01-1.5-.02Z"/><path class="cls-1" d="M134.35,68.75c-.39-.12-.78-.25-1.16-.37.39.12.78.25,1.16.37Z"/><path class="cls-1" d="M133.21,68.39c-.25-.15-.49-.3-.74-.46.25.15.49.3.74.46Z"/><path class="cls-1" d="M132.32,67.67c-.08-.1-.17-.19-.25-.29.08.1.17.19.25.29Z"/></g></svg>